<svg xmlns="http://www.w3.org/2000/svg" viewBox="0 0 2048 1023" preserveAspectRatio="xMidYMid" width="2048" height="1023" style="shape-rendering: auto; display: block; background: rgb(255, 255, 255);" xmlns:xlink="http://www.w3.org/1999/xlink"><g><path id="path0" d="M 911.9890626558405 633.688370407094
c 0 29.136292278014963 -7.1290927914291915 8.368935016025574 -15.498027807454767 8.368935016025574
S 880.993007040931 662.8246626851089 880.993007040931 633.688370407094
s 7.1290927914291915 -8.368935016025574 15.498027807454767 -8.368935016025574
S 911.9890626558405 604.5520781290791 911.9890626558405 633.688370407094
z" fill="none" stroke="none"></path>
<circle cx="0" cy="0" r="6.755288149823246" fill="#9df871">
  <animateMotion begin="-4.452624962659561s" dur="5s" repeatCount="indefinite">
    <mpath xlink:href="#path0"></mpath>
  </animateMotion>
</circle><path id="path1" d="M 1785.6330824644149 953.565651235822
c 0 27.52567240572689 -6.73500495033743 7.906310159091766 -14.641315109429197 7.906310159091766
S 1756.3504522455567 981.0913236415489 1756.3504522455567 953.565651235822
s 6.73500495033743 -7.906310159091766 14.641315109429197 -7.906310159091766
S 1785.6330824644149 926.039978830095 1785.6330824644149 953.565651235822
z" fill="none" stroke="none"></path>
<circle cx="0" cy="0" r="5.448484018603702" fill="#de9dd6">
  <animateMotion begin="-2.696482601472155s" dur="5s" repeatCount="indefinite">
    <mpath xlink:href="#path1"></mpath>
  </animateMotion>
</circle><path id="path2" d="M 1566.663595137181 701.2273106490514
c 0 28.30957422940603 -6.92681071570573 8.131473448871946 -15.058284164577675 8.131473448871946
S 1536.5470268080257 729.5368848784575 1536.5470268080257 701.2273106490514
s 6.92681071570573 -8.131473448871946 15.058284164577675 -8.131473448871946
S 1566.663595137181 672.9177364196454 1566.663595137181 701.2273106490514
z" fill="none" stroke="none"></path>
<circle cx="0" cy="0" r="4.286240997877628" fill="#51cacc">
  <animateMotion begin="-0.6245049581922305s" dur="5s" repeatCount="indefinite">
    <mpath xlink:href="#path2"></mpath>
  </animateMotion>
</circle><path id="path3" d="M 497.2602079877115 903.1869224440153
c 0 20.192214695535327 -4.9406482765671536 5.799891455100573 -10.740539731667727 5.799891455100573
S 475.779128524376 923.3791371395506 475.779128524376 903.1869224440153
s 4.9406482765671536 -5.799891455100573 10.740539731667727 -5.799891455100573
S 497.2602079877115 882.99470774848 497.2602079877115 903.1869224440153
z" fill="none" stroke="none"></path>
<circle cx="0" cy="0" r="7.024078820112205" fill="#ff708e">
  <animateMotion begin="-1.320959436465523s" dur="5s" repeatCount="indefinite">
    <mpath xlink:href="#path3"></mpath>
  </animateMotion>
</circle><path id="path4" d="M 429.11332969175663 861.2200155640361
c 0 33.44719273292893 -8.183887583588993 9.607172380734905 -17.7910599643239 9.607172380734905
S 393.53120976310885 894.667208296965 393.53120976310885 861.2200155640361
s 8.183887583588993 -9.607172380734905 17.7910599643239 -9.607172380734905
S 429.11332969175663 827.7728228311072 429.11332969175663 861.2200155640361
z" fill="none" stroke="none"></path>
<circle cx="0" cy="0" r="7.675369852855539" fill="#ff708e">
  <animateMotion begin="-1.4314234440681048s" dur="5s" repeatCount="indefinite">
    <mpath xlink:href="#path4"></mpath>
  </animateMotion>
</circle><path id="path5" d="M 1455.7789825143045 315.0511963801683
c 0 31.5890287191642 -7.729230431284857 9.073444419334399 -16.802674850619255 9.073444419334399
S 1422.173632813066 346.6402250993325 1422.173632813066 315.0511963801683
s 7.729230431284857 -9.073444419334399 16.802674850619255 -9.073444419334399
S 1455.7789825143045 283.46216766100406 1455.7789825143045 315.0511963801683
z" fill="none" stroke="none"></path>
<circle cx="0" cy="0" r="4.0101938022314485" fill="#9df871">
  <animateMotion begin="-2.2602198838533156s" dur="5s" repeatCount="indefinite">
    <mpath xlink:href="#path5"></mpath>
  </animateMotion>
</circle><path id="path6" d="M 812.7034740647057 349.5077224159586
c 0 28.624428616382275 -7.003849555072258 8.221910347258738 -15.225759902330998 8.221910347258738
S 782.2519542600437 378.13215103234086 782.2519542600437 349.5077224159586
s 7.003849555072258 -8.221910347258738 15.225759902330998 -8.221910347258738
S 812.7034740647057 320.88329379957634 812.7034740647057 349.5077224159586
z" fill="none" stroke="none"></path>
<circle cx="0" cy="0" r="4.397258126458928" fill="#de9dd6">
  <animateMotion begin="-3.4304836724102032s" dur="5s" repeatCount="indefinite">
    <mpath xlink:href="#path6"></mpath>
  </animateMotion>
</circle><path id="path7" d="M 125.66663726369313 588.4008144975007
c 0 28.76077294122283 -7.037210400511968 8.261073078861877 -15.298283479373843 8.261073078861877
S 95.07007030494546 617.1615874387236 95.07007030494546 588.4008144975007
s 7.037210400511968 -8.261073078861877 15.298283479373843 -8.261073078861877
S 125.66663726369313 559.6400415562779 125.66663726369313 588.4008144975007
z" fill="none" stroke="none"></path>
<circle cx="0" cy="0" r="7.475611329223074" fill="#51cacc">
  <animateMotion begin="-3.314737186913014s" dur="5s" repeatCount="indefinite">
    <mpath xlink:href="#path7"></mpath>
  </animateMotion>
</circle><path id="path8" d="M 49.04365527859001 966.7796770027189
c 0 37.03281338561535 -9.06122029648035 10.63708469586824 -19.69830499234859 10.63708469586824
S 9.647045293892827 1003.8124903883343 9.647045293892827 966.7796770027189
s 9.06122029648035 -10.63708469586824 19.69830499234859 -10.63708469586824
S 49.04365527859001 929.7468636171036 49.04365527859001 966.7796770027189
z" fill="none" stroke="none"></path>
<circle cx="0" cy="0" r="7.044536819348209" fill="#e0ff77">
  <animateMotion begin="-2.1402734420142284s" dur="5s" repeatCount="indefinite">
    <mpath xlink:href="#path8"></mpath>
  </animateMotion>
</circle><path id="path9" d="M 176.23104324469398 653.185209731712
c 0 33.19331805484756 -8.121769311292487 9.534250930647705 -17.65602024194019 9.534250930647705
S 140.9190027608136 686.3785277865595 140.9190027608136 653.185209731712
s 8.121769311292487 -9.534250930647705 17.65602024194019 -9.534250930647705
S 176.23104324469398 619.9918916768645 176.23104324469398 653.185209731712
z" fill="none" stroke="none"></path>
<circle cx="0" cy="0" r="7.3261564645746855" fill="#de9dd6">
  <animateMotion begin="-0.7489298378928221s" dur="5s" repeatCount="indefinite">
    <mpath xlink:href="#path9"></mpath>
  </animateMotion>
</circle><path id="path10" d="M 2040.4375053333877 754.7696407111116
c 0 37.43600865061774 -9.15987445706604 10.75289610177318 -19.91277055883922 10.75289610177318
S 2000.6119642157093 792.2056493617293 2000.6119642157093 754.7696407111116
s 9.15987445706604 -10.75289610177318 19.91277055883922 -10.75289610177318
S 2040.4375053333877 717.3336320604939 2040.4375053333877 754.7696407111116
z" fill="none" stroke="none"></path>
<circle cx="0" cy="0" r="4.507157367079178" fill="#9df871">
  <animateMotion begin="-2.7221216868692806s" dur="5s" repeatCount="indefinite">
    <mpath xlink:href="#path10"></mpath>
  </animateMotion>
</circle><path id="path11" d="M 183.39883989795177 1009.7221163490022
c 0 34.938230173235674 -8.54871589345128 10.035449092312374 -18.584164985763653 10.035449092312374
S 146.23050992642445 1044.660346522238 146.23050992642445 1009.7221163490022
s 8.54871589345128 -10.035449092312374 18.584164985763653 -10.035449092312374
S 183.39883989795177 974.7838861757666 183.39883989795177 1009.7221163490022
z" fill="none" stroke="none"></path>
<circle cx="0" cy="0" r="4.4323938311428375" fill="#e0ff77">
  <animateMotion begin="-3.919687096532975s" dur="5s" repeatCount="indefinite">
    <mpath xlink:href="#path11"></mpath>
  </animateMotion>
</circle><path id="path12" d="M 1059.6906783881639 199.48861602300806
c 0 24.595619929810514 -6.018077216868529 7.064699341541318 -13.082776558409847 7.064699341541318
S 1033.525125271344 224.08423595281857 1033.525125271344 199.48861602300806
s 6.018077216868529 -7.064699341541318 13.082776558409847 -7.064699341541318
S 1059.6906783881639 174.89299609319755 1059.6906783881639 199.48861602300806
z" fill="none" stroke="none"></path>
<circle cx="0" cy="0" r="6.832611720992429" fill="#e0ff77">
  <animateMotion begin="-3.9163055579291894s" dur="5s" repeatCount="indefinite">
    <mpath xlink:href="#path12"></mpath>
  </animateMotion>
</circle><path id="path13" d="M 256.52897685024254 943.8430536705074
c 0 34.40601477556588 -8.418492977000161 9.882578712130625 -18.301071689130787 9.882578712130625
S 219.92683347198096 978.2490684460732 219.92683347198096 943.8430536705074
s 8.418492977000161 -9.882578712130625 18.301071689130787 -9.882578712130625
S 256.52897685024254 909.4370388949416 256.52897685024254 943.8430536705074
z" fill="none" stroke="none"></path>
<circle cx="0" cy="0" r="4.234482236599649" fill="#ff708e">
  <animateMotion begin="-3.61669117225162s" dur="5s" repeatCount="indefinite">
    <mpath xlink:href="#path13"></mpath>
  </animateMotion>
</circle><path id="path14" d="M 1674.39556779984 316.5178956974645
c 0 20.877054907235586 -5.108215562408707 5.996600877610221 -11.104816440018928 5.996600877610221
S 1652.1859349198019 337.39495060470006 1652.1859349198019 316.5178956974645
s 5.108215562408707 -5.996600877610221 11.104816440018928 -5.996600877610221
S 1674.39556779984 295.64084079022894 1674.39556779984 316.5178956974645
z" fill="none" stroke="none"></path>
<circle cx="0" cy="0" r="7.795850902625954" fill="#9df871">
  <animateMotion begin="-1.8789459751901014s" dur="5s" repeatCount="indefinite">
    <mpath xlink:href="#path14"></mpath>
  </animateMotion>
</circle><path id="path15" d="M 645.8758527513414 85.67732663193235
c 0 35.74326028152416 -8.745691345479315 10.26668114469311 -19.012372490172424 10.26668114469311
S 607.8511077709966 121.4205869134565 607.8511077709966 85.67732663193235
s 8.745691345479315 -10.26668114469311 19.012372490172424 -10.26668114469311
S 645.8758527513414 49.93406635040819 645.8758527513414 85.67732663193235
z" fill="none" stroke="none"></path>
<circle cx="0" cy="0" r="5.285946023596587" fill="#ff708e">
  <animateMotion begin="-3.684359174532617s" dur="5s" repeatCount="indefinite">
    <mpath xlink:href="#path15"></mpath>
  </animateMotion>
</circle><path id="path16" d="M 1662.0622478958792 329.20983403236363
c 0 25.255163164808963 -6.179454816921342 7.2541426111685325 -13.433597428089874 7.2541426111685325
S 1635.1950530396996 354.4649971971726 1635.1950530396996 329.20983403236363
s 6.179454816921342 -7.2541426111685325 13.433597428089874 -7.2541426111685325
S 1662.0622478958792 303.9546708675547 1662.0622478958792 329.20983403236363
z" fill="none" stroke="none"></path>
<circle cx="0" cy="0" r="7.802311871938265" fill="#ff708e">
  <animateMotion begin="-4.494095834893382s" dur="5s" repeatCount="indefinite">
    <mpath xlink:href="#path16"></mpath>
  </animateMotion>
</circle><path id="path17" d="M 1733.3048379417871 478.9934045806287
c 0 27.762337199716384 -6.792912293547626 7.974288344599388 -14.767200638147013 7.974288344599388
S 1703.7704366654932 506.7557417803451 1703.7704366654932 478.9934045806287
s 6.792912293547626 -7.974288344599388 14.767200638147013 -7.974288344599388
S 1733.3048379417871 451.2310673809123 1733.3048379417871 478.9934045806287
z" fill="none" stroke="none"></path>
<circle cx="0" cy="0" r="6.193151245368766" fill="#de9dd6">
  <animateMotion begin="-4.87719856232807s" dur="5s" repeatCount="indefinite">
    <mpath xlink:href="#path17"></mpath>
  </animateMotion>
</circle><path id="path18" d="M 1324.6352517596663 328.7663904909336
c 0 24.00680414217949 -5.8740052688311515 6.895571402540918 -12.76957667137207 6.895571402540918
S 1299.0960984169221 352.77319463311306 1299.0960984169221 328.7663904909336
s 5.8740052688311515 -6.895571402540918 12.76957667137207 -6.895571402540918
S 1324.6352517596663 304.7595863487541 1324.6352517596663 328.7663904909336
z" fill="none" stroke="none"></path>
<circle cx="0" cy="0" r="7.127006513286282" fill="#9df871">
  <animateMotion begin="-2.1979622844253126s" dur="5s" repeatCount="indefinite">
    <mpath xlink:href="#path18"></mpath>
  </animateMotion>
</circle><path id="path19" d="M 884.1388861013517 603.4764794287855
c 0 21.425683665051896 -5.242454513789292 6.1541857335787356 -11.396640247368028 6.1541857335787356
S 861.3456056066155 624.9021630938374 861.3456056066155 603.4764794287855
s 5.242454513789292 -6.1541857335787356 11.396640247368028 -6.1541857335787356
S 884.1388861013517 582.0507957637336 884.1388861013517 603.4764794287855
z" fill="none" stroke="none"></path>
<circle cx="0" cy="0" r="5.026559999997462" fill="#ff708e">
  <animateMotion begin="-1.3281935151173045s" dur="5s" repeatCount="indefinite">
    <mpath xlink:href="#path19"></mpath>
  </animateMotion>
</circle><path id="path20" d="M 239.25884075129045 426.92484683210415
c 0 27.875193720179134 -6.820526123022553 8.00670457920039 -14.827230702222941 8.00670457920039
S 209.60437934684455 454.8000405522833 209.60437934684455 426.92484683210415
s 6.820526123022553 -8.00670457920039 14.827230702222941 -8.00670457920039
S 239.25884075129045 399.049653111925 239.25884075129045 426.92484683210415
z" fill="none" stroke="none"></path>
<circle cx="0" cy="0" r="4.336542307174825" fill="#ff708e">
  <animateMotion begin="-4.6056703249967645s" dur="5s" repeatCount="indefinite">
    <mpath xlink:href="#path20"></mpath>
  </animateMotion>
</circle><path id="path21" d="M 1622.2766130374782 397.10553539875076
c 0 35.0602762865984 -8.578578240337906 10.070504890831456 -18.649083131169363 10.070504890831456
S 1584.9784467751394 432.1658116853492 1584.9784467751394 397.10553539875076
s 8.578578240337906 -10.070504890831456 18.649083131169363 -10.070504890831456
S 1622.2766130374782 362.04525911215234 1622.2766130374782 397.10553539875076
z" fill="none" stroke="none"></path>
<circle cx="0" cy="0" r="7.964999094096754" fill="#9df871">
  <animateMotion begin="-3.738082036328769s" dur="5s" repeatCount="indefinite">
    <mpath xlink:href="#path21"></mpath>
  </animateMotion>
</circle><path id="path22" d="M 221.04844877537556 977.60578488721
c 0 20.726879481058862 -5.071470511322913 5.953465382857333 -11.024935894180246 5.953465382857333
S 198.99857698701504 998.3326643682689 198.99857698701504 977.60578488721
s 5.071470511322913 -5.953465382857333 11.024935894180246 -5.953465382857333
S 221.04844877537556 956.8789054061511 221.04844877537556 977.60578488721
z" fill="none" stroke="none"></path>
<circle cx="0" cy="0" r="4.172560061370044" fill="#51cacc">
  <animateMotion begin="-0.31536274574934253s" dur="5s" repeatCount="indefinite">
    <mpath xlink:href="#path22"></mpath>
  </animateMotion>
</circle><path id="path23" d="M 942.0503124444433 450.8414276505001
c 0 24.644656006553006 -6.030075405858714 7.078784172095013 -13.108859577953726 7.078784172095013
S 915.8325932885359 475.48608365705314 915.8325932885359 450.8414276505001
s 6.030075405858714 -7.078784172095013 13.108859577953726 -7.078784172095013
S 942.0503124444433 426.1967716439471 942.0503124444433 450.8414276505001
z" fill="none" stroke="none"></path>
<circle cx="0" cy="0" r="5.913358091597751" fill="#51cacc">
  <animateMotion begin="-3.324300540765787s" dur="5s" repeatCount="indefinite">
    <mpath xlink:href="#path23"></mpath>
  </animateMotion>
</circle><path id="path24" d="M 792.5433562444668 144.04564675257575
c 0 22.39227813069691 -5.478961670276902 6.431824569455496 -11.9107862397324 6.431824569455496
S 768.7217837650021 166.43792488327267 768.7217837650021 144.04564675257575
s 5.478961670276902 -6.431824569455496 11.9107862397324 -6.431824569455496
S 792.5433562444668 121.65336862187884 792.5433562444668 144.04564675257575
z" fill="none" stroke="none"></path>
<circle cx="0" cy="0" r="4.291908505376616" fill="#de9dd6">
  <animateMotion begin="-0.13005045855987357s" dur="5s" repeatCount="indefinite">
    <mpath xlink:href="#path24"></mpath>
  </animateMotion>
</circle><path id="path25" d="M 1460.4292454654033 865.2901297164339
c 0 21.9054299387754 -5.359839240338661 6.291985195180168 -11.65182443551883 6.291985195180168
S 1437.1255965943656 887.1955596552093 1437.1255965943656 865.2901297164339
s 5.359839240338661 -6.291985195180168 11.65182443551883 -6.291985195180168
S 1460.4292454654033 843.3846997776584 1460.4292454654033 865.2901297164339
z" fill="none" stroke="none"></path>
<circle cx="0" cy="0" r="7.277429151518261" fill="#de9dd6">
  <animateMotion begin="-0.9075020910035171s" dur="5s" repeatCount="indefinite">
    <mpath xlink:href="#path25"></mpath>
  </animateMotion>
</circle><path id="path26" d="M 1168.9571280033194 1010.1295697195724
c 0 19.60011548840424 -4.7957729386521 5.629820406243771 -10.425593344895871 5.629820406243771
S 1148.1059413135279 1029.7296852079767 1148.1059413135279 1010.1295697195724
s 4.7957729386521 -5.629820406243771 10.425593344895871 -5.629820406243771
S 1168.9571280033194 990.5294542311682 1168.9571280033194 1010.1295697195724
z" fill="none" stroke="none"></path>
<circle cx="0" cy="0" r="7.148127100373763" fill="#51cacc">
  <animateMotion begin="-3.188550081936997s" dur="5s" repeatCount="indefinite">
    <mpath xlink:href="#path26"></mpath>
  </animateMotion>
</circle><path id="path27" d="M 898.2264150633516 662.1461868449865
c 0 23.857022598359386 -5.837356593215594 6.852549044209611 -12.689905637425205 6.852549044209611
S 872.8466037885012 686.0032094433459 872.8466037885012 662.1461868449865
s 5.837356593215594 -6.852549044209611 12.689905637425205 -6.852549044209611
S 898.2264150633516 638.289164246627 898.2264150633516 662.1461868449865
z" fill="none" stroke="none"></path>
<circle cx="0" cy="0" r="5.076354755208069" fill="#9df871">
  <animateMotion begin="-4.691057508951752s" dur="5s" repeatCount="indefinite">
    <mpath xlink:href="#path27"></mpath>
  </animateMotion>
</circle><path id="path28" d="M 366.82056302783155 330.2281338202513
c 0 20.311239460937696 -4.969771357463478 5.834079419631041 -10.80385077709452 5.834079419631041
S 345.21286147364253 350.539373281189 345.21286147364253 330.2281338202513
s 4.969771357463478 -5.834079419631041 10.80385077709452 -5.834079419631041
S 366.82056302783155 309.9168943593136 366.82056302783155 330.2281338202513
z" fill="none" stroke="none"></path>
<circle cx="0" cy="0" r="5.928926446691011" fill="#9df871">
  <animateMotion begin="-4.9030714053265125s" dur="5s" repeatCount="indefinite">
    <mpath xlink:href="#path28"></mpath>
  </animateMotion>
</circle><path id="path29" d="M 805.6149117165561 126.93506507715274
c 0 24.835052542321872 -6.076661792270245 7.133472538752027 -13.210134331022271 7.133472538752027
S 779.1946430545116 151.7701176194746 779.1946430545116 126.93506507715274
s 6.076661792270245 -7.133472538752027 13.210134331022271 -7.133472538752027
S 805.6149117165561 102.10001253483087 805.6149117165561 126.93506507715274
z" fill="none" stroke="none"></path>
<circle cx="0" cy="0" r="7.767231827935047" fill="#9df871">
  <animateMotion begin="-3.7264468561015445s" dur="5s" repeatCount="indefinite">
    <mpath xlink:href="#path29"></mpath>
  </animateMotion>
</circle><g></g></g><!-- [ldio] generated by https://loading.io --></svg>